# xmcd
#
# Track frame offsets:
#	150
#	21088
#	44179
#	65787
#	90886
#	107444
#	126940
#	153125
#	177421
#	203751
#	225897
#	250116
#	271269
#	294304
#
# Disc length: 4277 seconds
#
# Revision: 1
# Processed by: cddbd v1.5.2PL0 Copyright (c) Steve Scherf et al.
# Submitted via: audiograbber 1.83.01
#
DISCID=b510b30e
DTITLE=Stormzone - Lucifer's Factory
DYEAR=2018
DGENRE=Power Metal
TTITLE0=Dark Hedges
TTITLE1=Lucifer's Factory
TTITLE2=Cushy Glen
TTITLE3=Last Night In Hell
TTITLE4=Albhartach
TTITLE5=We Are Strong
TTITLE6=Broken Window
TTITLE7=The Heaven You Despise
TTITLE8=Hallow's Eve
TTITLE9=Your Hell Falls Down
TTITLE10=In For The Kill
TTITLE11=The Last Goodbye
TTITLE12=Time To Go
TTITLE13=[hidden track]
EXTD=
EXTT0=
EXTT1=
EXTT2=
EXTT3=
EXTT4=
EXTT5=
EXTT6=
EXTT7=
EXTT8=
EXTT9=
EXTT10=
EXTT11=
EXTT12=
EXTT13=
PLAYORDER=
